<svg width="79" height="79" viewBox="0 0 79 79" fill="none" xmlns="http://www.w3.org/2000/svg">
<rect width="79" height="79" rx="7" fill="#7A7A7A"/>
<path d="M57.673 40.2882C57.673 50.2663 49.6081 58.3551 39.6596 58.3551C29.711 58.3551 21.6461 50.2663 21.6461 40.2882C21.6461 30.3101 29.711 22.2212 39.6596 22.2212C49.6081 22.2212 57.673 30.3101 57.673 40.2882ZM32.0885 40.2882C32.0885 44.4819 35.4782 47.8817 39.6596 47.8817C43.8409 47.8817 47.2306 44.4819 47.2306 40.2882C47.2306 36.0944 43.8409 32.6947 39.6596 32.6947C35.4782 32.6947 32.0885 36.0944 32.0885 40.2882Z" fill="#C4C4C4"/>
<path d="M35.9559 19.3508L35.6192 22.7278L44.3734 23.0655C44.2611 22.165 44.205 20.195 44.0367 19.3508C43.8782 18.5561 43.2867 18.1909 42.8582 18.1688C40.6697 18.0563 37.1343 18 36.7976 18C36.4078 18 35.9559 19.0131 35.9559 19.3508Z" fill="#C4C4C4"/>
<path d="M51.7217 22.7555L49.1515 24.963L55.2461 31.2749C55.7855 30.5462 57.1023 29.0836 57.5623 28.3567C57.9954 27.6724 57.8195 26.9985 57.525 26.6856C56.0207 25.0872 53.5042 22.5961 53.2609 22.3627C52.9791 22.0925 51.9544 22.5115 51.7217 22.7555Z" fill="#C4C4C4"/>
<path d="M57.5393 51.8559L54.9368 49.1451L48.9188 55.5326C49.7452 56.1024 51.4287 57.4924 52.2448 57.9787C53.013 58.4365 53.7058 58.2539 54.005 57.9453C55.533 56.3689 57.8964 53.731 58.117 53.4759C58.3724 53.1805 57.8216 52.1014 57.5393 51.8559Z" fill="#C4C4C4"/>
<path d="M43.9638 61.4717L44.2114 57.7167L35.4508 57.5511C35.5867 58.5476 35.6947 60.7319 35.8853 61.6646C36.0647 62.5426 36.6656 62.9337 37.0946 62.9479C39.2854 63.0205 42.8213 62.9986 43.1579 62.9905C43.5476 62.9812 43.9727 61.8463 43.9638 61.4717Z" fill="#C4C4C4"/>
<path d="M18.5804 44.2183L22.3273 44.4144L22.3706 35.6263C21.379 35.7765 19.2028 35.9152 18.2756 36.1193C17.4028 36.3114 17.0213 36.9195 17.0131 37.3499C16.9712 39.5481 17.0423 43.0937 17.055 43.4312C17.0697 43.8219 18.207 44.2324 18.5804 44.2183Z" fill="#C4C4C4"/>
<path d="M27.7361 58.0631L30.5707 55.5976L24.5242 49.2372C23.9138 50.0352 22.4422 51.6491 21.9154 52.4411C21.4195 53.1867 21.5653 53.8901 21.857 54.2059C23.347 55.8185 25.8504 58.3231 26.0929 58.5573C26.3737 58.8285 27.4769 58.333 27.7361 58.0631Z" fill="#C4C4C4"/>
<path d="M21.9782 28.1845L24.5524 30.9223L30.6364 24.5979C29.816 24.0195 28.1469 22.6121 27.336 22.1172C26.5726 21.6514 25.8779 21.8268 25.5755 22.1323C24.0312 23.6927 21.6406 26.3057 21.4174 26.5585C21.1589 26.8512 21.6985 27.936 21.9782 28.1845Z" fill="#C4C4C4"/>
<path d="M60.595 36.3902L57.1161 36.109L56.9107 44.8937C57.8351 44.7661 59.8604 44.6768 60.726 44.4939C61.5409 44.3217 61.9069 43.7224 61.9226 43.2923C62.0029 41.0957 62.0035 37.5494 61.998 37.2117C61.9917 36.8208 60.9424 36.3845 60.595 36.3902Z" fill="#C4C4C4"/>
</svg>
